<?xml version="1.0" standalone="no"?>
<!DOCTYPE svg PUBLIC "-//W3C//DTD SVG 20010904//EN"
 "http://www.w3.org/TR/2001/REC-SVG-20010904/DTD/svg10.dtd">
<svg version="1.0" xmlns="http://www.w3.org/2000/svg"
 width="512.000000pt" height="512.000000pt" viewBox="0 0 512.000000 512.000000"
 preserveAspectRatio="xMidYMid meet">
<metadata>
Created by potrace 1.11, written by Peter Selinger 2001-2013
</metadata>
<g transform="translate(0.000000,512.000000) scale(0.100000,-0.100000)"
fill="#000000" stroke="none">
<path d="M1599 5102 c-175 -46 -316 -198 -348 -376 -7 -40 -11 -346 -11 -925
0 -935 1 -944 54 -1048 14 -28 36 -64 50 -81 15 -16 26 -32 26 -36 0 -3 -228
-7 -507 -8 l-508 -3 -79 -38 c-133 -63 -228 -179 -261 -318 -22 -95 -23 -1816
0 -1902 45 -173 178 -307 350 -352 88 -23 1807 -22 1904 0 89 21 155 60 228
132 l63 63 63 -63 c73 -72 139 -111 228 -132 97 -22 1816 -23 1904 0 172 45
305 179 350 352 12 46 15 132 15 429 0 339 -2 374 -17 393 -26 31 -73 37 -103
13 l-25 -20 -5 -394 c-5 -393 -5 -393 -30 -443 -31 -64 -101 -134 -165 -165
l-50 -25 -920 0 -920 0 -55 26 c-66 31 -131 94 -162 157 l-23 47 0 935 0 935
23 43 c33 63 84 114 144 148 l53 29 935 0 935 0 47 -23 c63 -31 126 -96 157
-162 l26 -55 3 -385 c3 -376 4 -385 24 -407 30 -33 80 -31 107 3 20 26 21 38
21 390 0 226 -4 383 -11 416 -30 145 -129 271 -265 335 l-79 38 -507 3 c-280
1 -508 5 -508 8 0 4 11 20 26 36 14 17 36 53 50 81 50 97 54 144 54 657 0 517
1 509 -56 530 -23 9 -24 13 -24 110 0 92 2 100 19 100 11 0 29 12 40 26 20 25
21 39 21 259 0 127 -5 258 -11 291 -34 188 -192 349 -378 384 -34 6 -376 10
-940 9 -804 0 -892 -2 -952 -17z m1815 -179 c26 -26 61 -76 79 -112 l32 -66 3
-922 c2 -912 2 -923 -18 -984 -23 -67 -61 -128 -107 -172 l-30 -27 -869 2
-869 3 -50 25 c-73 35 -138 105 -164 174 l-21 58 2 916 3 917 27 50 c47 91
133 155 232 175 23 4 415 8 873 9 l831 1 46 -47z m-1245 -2482 c52 -52 87
-113 105 -186 14 -51 16 -175 16 -932 0 -607 -3 -888 -11 -925 -16 -73 -52
-142 -107 -200 l-45 -49 -856 3 c-651 3 -865 7 -893 16 -92 31 -183 124 -210
215 -10 33 -13 245 -13 942 l0 900 28 60 c43 93 109 152 200 181 33 10 223 13
895 13 l852 1 39 -39z"/>
<path d="M1742 4699 c-46 -23 -72 -55 -90 -108 -16 -45 -17 -1518 -2 -1573 14
-48 55 -97 97 -114 48 -21 1578 -21 1626 0 43 17 84 67 97 116 7 26 9 294 8
802 -3 727 -4 765 -22 801 -11 22 -37 51 -59 65 l-41 27 -785 3 c-783 2 -786
2 -829 -19z m1566 -137 c10 -7 12 -166 10 -763 l-3 -754 -755 0 -755 0 -3 754
c-2 597 0 756 10 763 7 4 344 8 748 8 404 0 741 -4 748 -8z"/>
<path d="M2558 4269 c-84 -12 -175 -58 -246 -123 -195 -181 -201 -487 -12
-676 171 -171 450 -188 607 -36 59 58 66 86 32 130 -28 35 -77 36 -110 0 -13
-14 -44 -38 -69 -52 -61 -37 -180 -38 -255 -4 -66 30 -138 103 -166 166 -32
72 -32 192 0 257 32 68 81 120 142 154 50 28 62 30 154 30 91 0 105 -3 149
-27 59 -34 96 -35 124 -5 67 71 -31 159 -208 188 -61 10 -62 10 -142 -2z"/>
<path d="M495 2211 c-40 -24 -71 -60 -84 -94 -7 -18 -11 -142 -11 -335 0 -331
2 -342 54 -361 28 -11 73 6 89 33 8 15 13 110 17 321 l5 300 755 0 755 0 0
-755 0 -755 -757 -3 -757 -2 -3 306 -3 306 -28 24 c-36 31 -71 31 -102 -1
l-25 -24 0 -313 c0 -282 2 -317 19 -353 22 -48 44 -69 94 -90 32 -13 135 -15
799 -15 485 0 776 4 800 10 39 11 104 75 113 112 3 13 4 379 3 814 l-3 791
-27 35 c-55 72 -7 68 -885 68 -751 0 -789 -1 -818 -19z"/>
<path d="M1262 1772 c-16 -12 -66 -133 -177 -424 -85 -224 -155 -417 -155
-428 0 -54 51 -90 101 -70 30 13 39 27 73 120 l24 65 189 3 189 2 29 -80 c32
-87 45 -105 87 -115 22 -6 33 -1 58 23 16 17 30 37 30 45 0 9 -69 199 -154
424 -166 437 -174 453 -239 453 -18 0 -42 -8 -55 -18z m124 -415 l61 -162
-125 -3 c-69 -1 -126 -1 -128 1 -6 5 118 327 125 327 3 0 33 -73 67 -163z"/>
<path d="M2995 2216 c-37 -17 -80 -62 -94 -99 -8 -19 -11 -280 -11 -803 0
-741 1 -776 19 -812 24 -47 50 -70 98 -88 50 -17 1514 -20 1578 -3 51 14 110
73 124 124 17 64 14 1528 -3 1578 -18 48 -41 74 -88 98 -36 18 -71 19 -815 19
-628 -1 -784 -3 -808 -14z m1569 -152 c3 -9 6 -346 6 -749 0 -654 -2 -735 -16
-749 -14 -14 -95 -16 -749 -16 -403 0 -740 3 -749 6 -14 6 -16 82 -16 758 0
414 3 756 7 759 3 4 345 7 759 7 676 0 752 -2 758 -16z"/>
<path d="M3511 1771 c-11 -11 -23 -35 -26 -53 -3 -18 -5 -212 -3 -430 3 -397
3 -397 26 -420 18 -18 36 -23 95 -26 113 -6 318 13 355 32 53 27 102 76 130
130 22 43 27 64 27 131 0 90 -18 135 -80 204 l-34 38 22 44 c30 61 30 167 0
224 -28 53 -78 99 -133 124 -39 18 -66 21 -202 21 -143 0 -160 -2 -177 -19z
m328 -144 c38 -19 64 -71 57 -111 -14 -73 -74 -101 -201 -94 l-60 3 -3 108 -3
107 93 0 c54 0 103 -6 117 -13z m67 -376 c35 -21 64 -75 64 -118 0 -40 -32
-95 -66 -115 -22 -12 -60 -17 -149 -20 l-120 -3 -3 138 -3 137 123 0 c103 0
128 -3 154 -19z"/>
</g>
</svg>
